<mxfile host="app.diagrams.net" modified="2024-06-14T15:25:57.617Z" agent="Mozilla/5.0 (X11; Linux x86_64) AppleWebKit/537.36 (KHTML, like Gecko) Chrome/125.0.0.0 Safari/537.36" etag="4AD8XnLiia9EcFFILtke" version="24.5.4" type="device">
  <diagram name="Page-1" id="5f0bae14-7c28-e335-631c-24af17079c00">
    <mxGraphModel dx="989" dy="538" grid="1" gridSize="10" guides="1" tooltips="1" connect="1" arrows="1" fold="1" page="1" pageScale="1" pageWidth="1100" pageHeight="850" background="none" math="0" shadow="0">
      <root>
        <mxCell id="0" />
        <mxCell id="1" parent="0" />
        <mxCell id="bYKJ4tdscfTUmLgBu-qz-1" value="&lt;font style=&quot;font-size: 10px;&quot;&gt;« GimmeQuote »&lt;/font&gt;&lt;div&gt;&lt;b&gt;Frontend&lt;/b&gt;&lt;/div&gt;" style="shape=module;align=left;spacingLeft=20;align=center;verticalAlign=top;whiteSpace=wrap;html=1;" vertex="1" parent="1">
          <mxGeometry x="180" y="157" width="170" height="50" as="geometry" />
        </mxCell>
        <mxCell id="bYKJ4tdscfTUmLgBu-qz-9" value="" style="rounded=0;orthogonalLoop=1;jettySize=auto;html=1;endArrow=halfCircle;endFill=0;endSize=6;strokeWidth=1;sketch=0;" edge="1" target="bYKJ4tdscfTUmLgBu-qz-11" parent="1" source="bYKJ4tdscfTUmLgBu-qz-1">
          <mxGeometry relative="1" as="geometry">
            <mxPoint x="390" y="302" as="sourcePoint" />
          </mxGeometry>
        </mxCell>
        <mxCell id="bYKJ4tdscfTUmLgBu-qz-2" value="&lt;span style=&quot;font-size: 10px;&quot;&gt;« GimmeQuote »&lt;/span&gt;&lt;br&gt;&lt;b&gt;Backend&lt;/b&gt;&lt;div&gt;&lt;br&gt;&lt;/div&gt;" style="shape=module;align=left;spacingLeft=20;align=center;verticalAlign=top;whiteSpace=wrap;html=1;" vertex="1" parent="1">
          <mxGeometry x="420" y="157" width="165" height="50" as="geometry" />
        </mxCell>
        <mxCell id="bYKJ4tdscfTUmLgBu-qz-10" value="" style="rounded=0;orthogonalLoop=1;jettySize=auto;html=1;endArrow=oval;endFill=0;sketch=0;sourcePerimeterSpacing=0;targetPerimeterSpacing=0;endSize=10;exitX=0.068;exitY=0.5;exitDx=0;exitDy=0;exitPerimeter=0;" edge="1" target="bYKJ4tdscfTUmLgBu-qz-11" parent="1" source="bYKJ4tdscfTUmLgBu-qz-2">
          <mxGeometry relative="1" as="geometry">
            <mxPoint x="385" y="302" as="sourcePoint" />
          </mxGeometry>
        </mxCell>
        <mxCell id="bYKJ4tdscfTUmLgBu-qz-11" value="&lt;b&gt;Quote&lt;/b&gt;" style="ellipse;whiteSpace=wrap;html=1;align=center;aspect=fixed;fillColor=none;strokeColor=none;resizable=0;perimeter=centerPerimeter;rotatable=0;allowArrows=0;points=[];outlineConnect=1;verticalAlign=top;horizontal=1;spacing=0;labelPosition=center;verticalLabelPosition=bottom;" vertex="1" parent="1">
          <mxGeometry x="387" y="177" width="10" height="10" as="geometry" />
        </mxCell>
        <mxCell id="bYKJ4tdscfTUmLgBu-qz-13" value="&lt;b&gt;Web UI&lt;/b&gt;" style="ellipse;html=1;verticalAlign=top;fontSize=12;labelPosition=center;verticalLabelPosition=bottom;align=center;spacing=0;spacingLeft=0;spacingRight=0;" vertex="1" parent="1">
          <mxGeometry x="120" y="177" width="10" height="10" as="geometry" />
        </mxCell>
        <mxCell id="bYKJ4tdscfTUmLgBu-qz-14" value="" style="endArrow=none;html=1;rounded=0;exitX=1;exitY=0.5;exitDx=0;exitDy=0;" edge="1" parent="1" source="bYKJ4tdscfTUmLgBu-qz-13">
          <mxGeometry width="50" height="50" relative="1" as="geometry">
            <mxPoint x="320" y="267" as="sourcePoint" />
            <mxPoint x="190" y="182" as="targetPoint" />
          </mxGeometry>
        </mxCell>
        <mxCell id="bYKJ4tdscfTUmLgBu-qz-15" value="&lt;span style=&quot;font-size: 10px;&quot;&gt;« gameofthronesquotes.xyz »&lt;/span&gt;&lt;br&gt;&lt;b&gt;Game of Thrones Quotes&lt;/b&gt;&lt;div&gt;&lt;br&gt;&lt;/div&gt;" style="shape=module;align=left;spacingLeft=20;align=center;verticalAlign=top;whiteSpace=wrap;html=1;" vertex="1" parent="1">
          <mxGeometry x="238" y="270" width="170" height="50" as="geometry" />
        </mxCell>
        <mxCell id="bYKJ4tdscfTUmLgBu-qz-16" value="&lt;span style=&quot;font-size: 10px;&quot;&gt;« breakingbadquotes.xyz »&lt;/span&gt;&lt;br&gt;&lt;b&gt;Breaking Bad Quotes&lt;/b&gt;&lt;div&gt;&lt;br&gt;&lt;/div&gt;" style="shape=module;align=left;spacingLeft=20;align=center;verticalAlign=top;whiteSpace=wrap;html=1;" vertex="1" parent="1">
          <mxGeometry x="238" y="329" width="170" height="50" as="geometry" />
        </mxCell>
        <mxCell id="bYKJ4tdscfTUmLgBu-qz-22" value="" style="rounded=0;orthogonalLoop=1;jettySize=auto;html=1;endArrow=halfCircle;endFill=0;endSize=6;strokeWidth=1;sketch=0;entryX=1.333;entryY=0.8;entryDx=0;entryDy=0;entryPerimeter=0;exitX=0.298;exitY=0.993;exitDx=0;exitDy=0;exitPerimeter=0;" edge="1" parent="1" target="bYKJ4tdscfTUmLgBu-qz-24">
          <mxGeometry relative="1" as="geometry">
            <mxPoint x="537.6999999999998" y="206.6500000000001" as="sourcePoint" />
            <Array as="points">
              <mxPoint x="538" y="295" />
            </Array>
          </mxGeometry>
        </mxCell>
        <mxCell id="bYKJ4tdscfTUmLgBu-qz-17" value="&lt;span style=&quot;font-size: 10px;&quot;&gt;« kanye.rest&lt;/span&gt;&lt;span style=&quot;font-size: 10px; background-color: initial;&quot;&gt;&amp;nbsp;»&lt;/span&gt;&lt;div&gt;&lt;b&gt;Kanye West Quotes&lt;/b&gt;&lt;br&gt;&lt;div&gt;&lt;br&gt;&lt;/div&gt;&lt;/div&gt;" style="shape=module;align=left;spacingLeft=20;align=center;verticalAlign=top;whiteSpace=wrap;html=1;" vertex="1" parent="1">
          <mxGeometry x="238" y="388" width="170" height="50" as="geometry" />
        </mxCell>
        <mxCell id="bYKJ4tdscfTUmLgBu-qz-23" value="" style="rounded=0;orthogonalLoop=1;jettySize=auto;html=1;endArrow=oval;endFill=0;sketch=0;sourcePerimeterSpacing=0;targetPerimeterSpacing=0;endSize=10;exitX=1;exitY=0.5;exitDx=0;exitDy=0;" edge="1" parent="1" target="bYKJ4tdscfTUmLgBu-qz-24" source="bYKJ4tdscfTUmLgBu-qz-15">
          <mxGeometry relative="1" as="geometry">
            <mxPoint x="445" y="420" as="sourcePoint" />
          </mxGeometry>
        </mxCell>
        <mxCell id="bYKJ4tdscfTUmLgBu-qz-24" value="&lt;b&gt;Quote&lt;/b&gt;" style="ellipse;whiteSpace=wrap;html=1;align=center;aspect=fixed;fillColor=none;strokeColor=none;resizable=0;perimeter=centerPerimeter;rotatable=0;allowArrows=0;points=[];outlineConnect=1;verticalAlign=top;horizontal=1;spacing=0;labelPosition=center;verticalLabelPosition=bottom;" vertex="1" parent="1">
          <mxGeometry x="485" y="290" width="10" height="10" as="geometry" />
        </mxCell>
        <mxCell id="bYKJ4tdscfTUmLgBu-qz-25" value="" style="rounded=0;orthogonalLoop=1;jettySize=auto;html=1;endArrow=halfCircle;endFill=0;endSize=6;strokeWidth=1;sketch=0;entryX=1.333;entryY=0.8;entryDx=0;entryDy=0;entryPerimeter=0;exitX=0.396;exitY=1.008;exitDx=0;exitDy=0;exitPerimeter=0;" edge="1" parent="1" target="bYKJ4tdscfTUmLgBu-qz-27">
          <mxGeometry relative="1" as="geometry">
            <mxPoint x="552.3999999999999" y="207.39999999999998" as="sourcePoint" />
            <Array as="points">
              <mxPoint x="552" y="354" />
            </Array>
          </mxGeometry>
        </mxCell>
        <mxCell id="bYKJ4tdscfTUmLgBu-qz-26" value="" style="rounded=0;orthogonalLoop=1;jettySize=auto;html=1;endArrow=oval;endFill=0;sketch=0;sourcePerimeterSpacing=0;targetPerimeterSpacing=0;endSize=10;exitX=1;exitY=0.5;exitDx=0;exitDy=0;" edge="1" parent="1" target="bYKJ4tdscfTUmLgBu-qz-27" source="bYKJ4tdscfTUmLgBu-qz-16">
          <mxGeometry relative="1" as="geometry">
            <mxPoint x="380" y="345" as="sourcePoint" />
          </mxGeometry>
        </mxCell>
        <mxCell id="bYKJ4tdscfTUmLgBu-qz-27" value="&lt;b&gt;Quote&lt;/b&gt;" style="ellipse;whiteSpace=wrap;html=1;align=center;aspect=fixed;fillColor=none;strokeColor=none;resizable=0;perimeter=centerPerimeter;rotatable=0;allowArrows=0;points=[];outlineConnect=1;verticalAlign=top;horizontal=1;spacing=0;labelPosition=center;verticalLabelPosition=bottom;" vertex="1" parent="1">
          <mxGeometry x="485" y="349" width="10" height="10" as="geometry" />
        </mxCell>
        <mxCell id="bYKJ4tdscfTUmLgBu-qz-28" value="" style="rounded=0;orthogonalLoop=1;jettySize=auto;html=1;endArrow=halfCircle;endFill=0;endSize=6;strokeWidth=1;sketch=0;entryX=1.333;entryY=0.8;entryDx=0;entryDy=0;entryPerimeter=0;exitX=0.5;exitY=1;exitDx=0;exitDy=0;" edge="1" parent="1" target="bYKJ4tdscfTUmLgBu-qz-30">
          <mxGeometry relative="1" as="geometry">
            <mxPoint x="567.9999999999998" y="207" as="sourcePoint" />
            <Array as="points">
              <mxPoint x="568" y="413" />
            </Array>
          </mxGeometry>
        </mxCell>
        <mxCell id="bYKJ4tdscfTUmLgBu-qz-29" value="" style="rounded=0;orthogonalLoop=1;jettySize=auto;html=1;endArrow=oval;endFill=0;sketch=0;sourcePerimeterSpacing=0;targetPerimeterSpacing=0;endSize=10;exitX=1;exitY=0.5;exitDx=0;exitDy=0;" edge="1" parent="1" target="bYKJ4tdscfTUmLgBu-qz-30" source="bYKJ4tdscfTUmLgBu-qz-17">
          <mxGeometry relative="1" as="geometry">
            <mxPoint x="410" y="420" as="sourcePoint" />
          </mxGeometry>
        </mxCell>
        <mxCell id="bYKJ4tdscfTUmLgBu-qz-30" value="&lt;b&gt;Quote&lt;/b&gt;" style="ellipse;whiteSpace=wrap;html=1;align=center;aspect=fixed;fillColor=none;strokeColor=none;resizable=0;perimeter=centerPerimeter;rotatable=0;allowArrows=0;points=[];outlineConnect=1;verticalAlign=top;horizontal=1;spacing=0;labelPosition=center;verticalLabelPosition=bottom;" vertex="1" parent="1">
          <mxGeometry x="485" y="408" width="10" height="10" as="geometry" />
        </mxCell>
        <mxCell id="bYKJ4tdscfTUmLgBu-qz-31" value="Etc." style="shape=note2;boundedLbl=1;whiteSpace=wrap;html=1;size=12;verticalAlign=middle;align=center;" vertex="1" parent="1">
          <mxGeometry x="338" y="429" width="80" height="22" as="geometry" />
        </mxCell>
        <mxCell id="bYKJ4tdscfTUmLgBu-qz-37" value="" style="rounded=0;whiteSpace=wrap;html=1;fillColor=none;dashed=1;" vertex="1" parent="1">
          <mxGeometry x="230" y="244" width="200" height="220" as="geometry" />
        </mxCell>
        <mxCell id="bYKJ4tdscfTUmLgBu-qz-38" value="External APIs" style="text;html=1;align=center;verticalAlign=middle;whiteSpace=wrap;rounded=0;fontSize=10;" vertex="1" parent="1">
          <mxGeometry x="230" y="246" width="200" height="16" as="geometry" />
        </mxCell>
      </root>
    </mxGraphModel>
  </diagram>
</mxfile>
